<mxfile host="app.diagrams.net" modified="2024-05-19T03:45:39.064Z" agent="Mozilla/5.0 (Windows NT 10.0; Win64; x64) AppleWebKit/537.36 (KHTML, like Gecko) Chrome/122.0.0.0 Safari/537.36 Edg/122.0.0.0" etag="JWlEiYYXETJj6BUkwiyD" version="24.3.1" type="device">
  <diagram name="第 1 页" id="asTsl10v3yfyGCw3B43l">
    <mxGraphModel dx="1050" dy="611" grid="1" gridSize="10" guides="1" tooltips="1" connect="1" arrows="1" fold="1" page="1" pageScale="1" pageWidth="827" pageHeight="1169" math="0" shadow="0">
      <root>
        <mxCell id="0" />
        <mxCell id="1" parent="0" />
        <mxCell id="mtIBvJoiP3hW8IMaiELa-23" style="edgeStyle=orthogonalEdgeStyle;rounded=0;orthogonalLoop=1;jettySize=auto;html=1;exitX=1;exitY=0.25;exitDx=0;exitDy=0;endArrow=none;endFill=0;startArrow=classic;startFill=1;" parent="1" source="mtIBvJoiP3hW8IMaiELa-1" edge="1">
          <mxGeometry relative="1" as="geometry">
            <mxPoint x="460" y="130" as="targetPoint" />
            <mxPoint x="360" y="130" as="sourcePoint" />
          </mxGeometry>
        </mxCell>
        <mxCell id="mtIBvJoiP3hW8IMaiELa-29" style="edgeStyle=orthogonalEdgeStyle;rounded=0;orthogonalLoop=1;jettySize=auto;html=1;exitX=1;exitY=0.75;exitDx=0;exitDy=0;startArrow=classic;startFill=1;endArrow=none;endFill=0;" parent="1" source="mtIBvJoiP3hW8IMaiELa-1" edge="1">
          <mxGeometry relative="1" as="geometry">
            <mxPoint x="420" y="150" as="targetPoint" />
          </mxGeometry>
        </mxCell>
        <mxCell id="mtIBvJoiP3hW8IMaiELa-37" style="edgeStyle=orthogonalEdgeStyle;rounded=0;orthogonalLoop=1;jettySize=auto;html=1;exitX=0;exitY=0.5;exitDx=0;exitDy=0;endArrow=none;endFill=0;" parent="1" source="mtIBvJoiP3hW8IMaiELa-1" edge="1">
          <mxGeometry relative="1" as="geometry">
            <mxPoint x="100" y="140" as="targetPoint" />
          </mxGeometry>
        </mxCell>
        <mxCell id="mtIBvJoiP3hW8IMaiELa-1" value="" style="shape=partialRectangle;whiteSpace=wrap;html=1;left=0;right=0;fillColor=none;" parent="1" vertex="1">
          <mxGeometry x="120" y="120" width="280" height="40" as="geometry" />
        </mxCell>
        <mxCell id="mtIBvJoiP3hW8IMaiELa-32" style="edgeStyle=orthogonalEdgeStyle;rounded=0;orthogonalLoop=1;jettySize=auto;html=1;exitX=1;exitY=0.5;exitDx=0;exitDy=0;endArrow=none;endFill=0;startArrow=classic;startFill=1;" parent="1" source="mtIBvJoiP3hW8IMaiELa-2" edge="1">
          <mxGeometry relative="1" as="geometry">
            <mxPoint x="420" y="200" as="targetPoint" />
          </mxGeometry>
        </mxCell>
        <mxCell id="mtIBvJoiP3hW8IMaiELa-36" style="edgeStyle=orthogonalEdgeStyle;rounded=0;orthogonalLoop=1;jettySize=auto;html=1;exitX=0;exitY=0.5;exitDx=0;exitDy=0;endArrow=none;endFill=0;" parent="1" source="mtIBvJoiP3hW8IMaiELa-2" edge="1">
          <mxGeometry relative="1" as="geometry">
            <mxPoint x="100" y="200" as="targetPoint" />
          </mxGeometry>
        </mxCell>
        <mxCell id="mtIBvJoiP3hW8IMaiELa-2" value="" style="shape=partialRectangle;whiteSpace=wrap;html=1;left=0;right=0;fillColor=none;" parent="1" vertex="1">
          <mxGeometry x="120" y="180" width="280" height="40" as="geometry" />
        </mxCell>
        <mxCell id="mtIBvJoiP3hW8IMaiELa-31" style="edgeStyle=orthogonalEdgeStyle;rounded=0;orthogonalLoop=1;jettySize=auto;html=1;exitX=1;exitY=0.5;exitDx=0;exitDy=0;startArrow=classic;startFill=1;endArrow=none;endFill=0;" parent="1" source="mtIBvJoiP3hW8IMaiELa-3" edge="1">
          <mxGeometry relative="1" as="geometry">
            <mxPoint x="420" y="300" as="targetPoint" />
          </mxGeometry>
        </mxCell>
        <mxCell id="mtIBvJoiP3hW8IMaiELa-35" style="edgeStyle=orthogonalEdgeStyle;rounded=0;orthogonalLoop=1;jettySize=auto;html=1;exitX=0;exitY=0.5;exitDx=0;exitDy=0;endArrow=none;endFill=0;" parent="1" source="mtIBvJoiP3hW8IMaiELa-3" edge="1">
          <mxGeometry relative="1" as="geometry">
            <mxPoint x="100" y="300" as="targetPoint" />
          </mxGeometry>
        </mxCell>
        <mxCell id="mtIBvJoiP3hW8IMaiELa-3" value="" style="shape=partialRectangle;whiteSpace=wrap;html=1;left=0;right=0;fillColor=none;" parent="1" vertex="1">
          <mxGeometry x="120" y="280" width="280" height="40" as="geometry" />
        </mxCell>
        <mxCell id="mtIBvJoiP3hW8IMaiELa-4" value="&lt;font style=&quot;font-size: 20px;&quot;&gt;......&lt;/font&gt;" style="text;html=1;align=center;verticalAlign=middle;resizable=0;points=[];autosize=1;strokeColor=none;fillColor=none;" parent="1" vertex="1">
          <mxGeometry x="230" y="223" width="60" height="40" as="geometry" />
        </mxCell>
        <mxCell id="mtIBvJoiP3hW8IMaiELa-6" value="&lt;font style=&quot;font-size: 15px;&quot;&gt;任务调度队列0&lt;/font&gt;" style="text;html=1;align=center;verticalAlign=middle;whiteSpace=wrap;rounded=0;" parent="1" vertex="1">
          <mxGeometry x="192" y="125" width="136" height="30" as="geometry" />
        </mxCell>
        <mxCell id="mtIBvJoiP3hW8IMaiELa-8" value="&lt;font style=&quot;font-size: 15px;&quot;&gt;任务调度队列1&lt;/font&gt;" style="text;html=1;align=center;verticalAlign=middle;whiteSpace=wrap;rounded=0;" parent="1" vertex="1">
          <mxGeometry x="192" y="185" width="136" height="30" as="geometry" />
        </mxCell>
        <mxCell id="mtIBvJoiP3hW8IMaiELa-9" value="&lt;font style=&quot;font-size: 15px;&quot;&gt;任务调度队列8&lt;/font&gt;" style="text;html=1;align=center;verticalAlign=middle;whiteSpace=wrap;rounded=0;" parent="1" vertex="1">
          <mxGeometry x="192" y="285" width="136" height="30" as="geometry" />
        </mxCell>
        <mxCell id="mtIBvJoiP3hW8IMaiELa-20" style="edgeStyle=orthogonalEdgeStyle;rounded=0;orthogonalLoop=1;jettySize=auto;html=1;exitX=1;exitY=0.5;exitDx=0;exitDy=0;startArrow=classic;startFill=1;endArrow=none;endFill=0;" parent="1" source="mtIBvJoiP3hW8IMaiELa-10" edge="1">
          <mxGeometry relative="1" as="geometry">
            <mxPoint x="780" y="140" as="targetPoint" />
          </mxGeometry>
        </mxCell>
        <mxCell id="mtIBvJoiP3hW8IMaiELa-27" style="edgeStyle=orthogonalEdgeStyle;rounded=0;orthogonalLoop=1;jettySize=auto;html=1;exitX=0;exitY=0.25;exitDx=0;exitDy=0;endArrow=none;endFill=0;" parent="1" source="mtIBvJoiP3hW8IMaiELa-10" edge="1">
          <mxGeometry relative="1" as="geometry">
            <mxPoint x="460" y="130.1836734693877" as="targetPoint" />
          </mxGeometry>
        </mxCell>
        <mxCell id="mtIBvJoiP3hW8IMaiELa-10" value="" style="shape=partialRectangle;whiteSpace=wrap;html=1;left=0;right=0;fillColor=none;" parent="1" vertex="1">
          <mxGeometry x="480" y="120" width="280" height="40" as="geometry" />
        </mxCell>
        <mxCell id="mtIBvJoiP3hW8IMaiELa-19" style="edgeStyle=orthogonalEdgeStyle;rounded=0;orthogonalLoop=1;jettySize=auto;html=1;exitX=1;exitY=0.5;exitDx=0;exitDy=0;startArrow=classic;startFill=1;endArrow=none;endFill=0;" parent="1" source="mtIBvJoiP3hW8IMaiELa-11" edge="1">
          <mxGeometry relative="1" as="geometry">
            <mxPoint x="780" y="200" as="targetPoint" />
          </mxGeometry>
        </mxCell>
        <mxCell id="mtIBvJoiP3hW8IMaiELa-25" style="edgeStyle=orthogonalEdgeStyle;rounded=0;orthogonalLoop=1;jettySize=auto;html=1;exitX=0;exitY=0.5;exitDx=0;exitDy=0;endArrow=none;endFill=0;" parent="1" source="mtIBvJoiP3hW8IMaiELa-11" edge="1">
          <mxGeometry relative="1" as="geometry">
            <mxPoint x="460" y="200" as="targetPoint" />
          </mxGeometry>
        </mxCell>
        <mxCell id="mtIBvJoiP3hW8IMaiELa-11" value="" style="shape=partialRectangle;whiteSpace=wrap;html=1;left=0;right=0;fillColor=none;" parent="1" vertex="1">
          <mxGeometry x="480" y="180" width="280" height="40" as="geometry" />
        </mxCell>
        <mxCell id="mtIBvJoiP3hW8IMaiELa-18" style="edgeStyle=orthogonalEdgeStyle;rounded=0;orthogonalLoop=1;jettySize=auto;html=1;endArrow=none;endFill=0;startArrow=classic;startFill=1;" parent="1" source="mtIBvJoiP3hW8IMaiELa-12" edge="1">
          <mxGeometry relative="1" as="geometry">
            <mxPoint x="780" y="300" as="targetPoint" />
          </mxGeometry>
        </mxCell>
        <mxCell id="mtIBvJoiP3hW8IMaiELa-26" style="edgeStyle=orthogonalEdgeStyle;rounded=0;orthogonalLoop=1;jettySize=auto;html=1;exitX=0;exitY=0.5;exitDx=0;exitDy=0;endArrow=none;endFill=0;" parent="1" source="mtIBvJoiP3hW8IMaiELa-12" edge="1">
          <mxGeometry relative="1" as="geometry">
            <mxPoint x="460" y="300" as="targetPoint" />
          </mxGeometry>
        </mxCell>
        <mxCell id="mtIBvJoiP3hW8IMaiELa-12" value="" style="shape=partialRectangle;whiteSpace=wrap;html=1;left=0;right=0;fillColor=none;" parent="1" vertex="1">
          <mxGeometry x="480" y="280" width="280" height="40" as="geometry" />
        </mxCell>
        <mxCell id="mtIBvJoiP3hW8IMaiELa-13" value="&lt;font style=&quot;font-size: 20px;&quot;&gt;......&lt;/font&gt;" style="text;html=1;align=center;verticalAlign=middle;resizable=0;points=[];autosize=1;strokeColor=none;fillColor=none;" parent="1" vertex="1">
          <mxGeometry x="590" y="223" width="60" height="40" as="geometry" />
        </mxCell>
        <mxCell id="mtIBvJoiP3hW8IMaiELa-14" value="&lt;font style=&quot;font-size: 15px;&quot;&gt;中断处理队列0&lt;/font&gt;" style="text;html=1;align=center;verticalAlign=middle;whiteSpace=wrap;rounded=0;" parent="1" vertex="1">
          <mxGeometry x="552" y="125" width="136" height="30" as="geometry" />
        </mxCell>
        <mxCell id="mtIBvJoiP3hW8IMaiELa-15" value="&lt;font style=&quot;font-size: 15px;&quot;&gt;中断处理队列1&lt;/font&gt;" style="text;html=1;align=center;verticalAlign=middle;whiteSpace=wrap;rounded=0;" parent="1" vertex="1">
          <mxGeometry x="552" y="185" width="136" height="30" as="geometry" />
        </mxCell>
        <mxCell id="mtIBvJoiP3hW8IMaiELa-16" value="&lt;font style=&quot;font-size: 15px;&quot;&gt;中断处理队列16&lt;/font&gt;" style="text;html=1;align=center;verticalAlign=middle;whiteSpace=wrap;rounded=0;" parent="1" vertex="1">
          <mxGeometry x="546" y="285" width="148" height="30" as="geometry" />
        </mxCell>
        <mxCell id="mtIBvJoiP3hW8IMaiELa-17" value="" style="endArrow=none;html=1;rounded=0;" parent="1" edge="1">
          <mxGeometry width="50" height="50" relative="1" as="geometry">
            <mxPoint x="780" y="300" as="sourcePoint" />
            <mxPoint x="780" y="80" as="targetPoint" />
          </mxGeometry>
        </mxCell>
        <mxCell id="mtIBvJoiP3hW8IMaiELa-21" value="&lt;font style=&quot;font-size: 15px;&quot;&gt;intr_push:&lt;/font&gt;&lt;div style=&quot;font-size: 15px;&quot;&gt;&lt;font style=&quot;font-size: 15px;&quot;&gt;向对应中断队列放入中断处理协程&lt;/font&gt;&lt;/div&gt;" style="text;html=1;align=right;verticalAlign=middle;resizable=0;points=[];autosize=1;strokeColor=none;fillColor=none;" parent="1" vertex="1">
          <mxGeometry x="552" y="30" width="250" height="50" as="geometry" />
        </mxCell>
        <mxCell id="mtIBvJoiP3hW8IMaiELa-22" value="" style="endArrow=none;html=1;rounded=0;" parent="1" edge="1">
          <mxGeometry width="50" height="50" relative="1" as="geometry">
            <mxPoint x="460" y="300" as="sourcePoint" />
            <mxPoint x="460" y="130" as="targetPoint" />
          </mxGeometry>
        </mxCell>
        <mxCell id="mtIBvJoiP3hW8IMaiELa-28" value="" style="endArrow=none;html=1;rounded=0;" parent="1" edge="1">
          <mxGeometry width="50" height="50" relative="1" as="geometry">
            <mxPoint x="420" y="300" as="sourcePoint" />
            <mxPoint x="420" y="80" as="targetPoint" />
          </mxGeometry>
        </mxCell>
        <mxCell id="mtIBvJoiP3hW8IMaiELa-33" value="&lt;font style=&quot;font-size: 15px;&quot;&gt;ps_push:&lt;/font&gt;&lt;div style=&quot;font-size: 15px;&quot;&gt;&lt;font style=&quot;font-size: 15px;&quot;&gt;向对应调度队列放入协程&lt;/font&gt;&lt;/div&gt;" style="text;html=1;align=center;verticalAlign=middle;resizable=0;points=[];autosize=1;strokeColor=none;fillColor=none;" parent="1" vertex="1">
          <mxGeometry x="328" y="30" width="190" height="50" as="geometry" />
        </mxCell>
        <mxCell id="mtIBvJoiP3hW8IMaiELa-34" value="" style="endArrow=classic;html=1;rounded=0;startArrow=none;startFill=0;endFill=1;" parent="1" edge="1">
          <mxGeometry width="50" height="50" relative="1" as="geometry">
            <mxPoint x="100" y="300" as="sourcePoint" />
            <mxPoint x="100" y="80" as="targetPoint" />
          </mxGeometry>
        </mxCell>
        <mxCell id="mtIBvJoiP3hW8IMaiELa-38" value="&lt;font style=&quot;font-size: 15px;&quot;&gt;ps_fetch:&lt;/font&gt;&lt;div style=&quot;font-size: 15px;&quot;&gt;弹出最高优先级队列的第一个协程&lt;/div&gt;" style="text;html=1;align=left;verticalAlign=middle;resizable=0;points=[];autosize=1;strokeColor=none;fillColor=none;" parent="1" vertex="1">
          <mxGeometry x="80" y="30" width="250" height="50" as="geometry" />
        </mxCell>
        <mxCell id="mtIBvJoiP3hW8IMaiELa-40" value="" style="endArrow=classic;html=1;rounded=0;" parent="1" edge="1">
          <mxGeometry width="50" height="50" relative="1" as="geometry">
            <mxPoint x="460" y="360" as="sourcePoint" />
            <mxPoint x="460" y="300" as="targetPoint" />
          </mxGeometry>
        </mxCell>
        <mxCell id="mtIBvJoiP3hW8IMaiELa-41" value="&lt;span style=&quot;font-size: 15px;&quot;&gt;中断到来时，将中断号对应队列的&lt;/span&gt;&lt;div&gt;&lt;span style=&quot;font-size: 15px;&quot;&gt;第一个协程放入最高优先级队列&lt;/span&gt;&lt;/div&gt;" style="text;html=1;align=center;verticalAlign=middle;resizable=0;points=[];autosize=1;strokeColor=none;fillColor=none;overflow=visible;imageAspect=1;" parent="1" vertex="1">
          <mxGeometry x="330" y="360" width="250" height="50" as="geometry" />
        </mxCell>
      </root>
    </mxGraphModel>
  </diagram>
</mxfile>
